<?xml version="1.0" encoding="UTF-8"?>
<svg width="202px" height="246px" viewBox="0 0 202 246" version="1.1" xmlns="http://www.w3.org/2000/svg" xmlns:xlink="http://www.w3.org/1999/xlink">
    <!-- Generator: Sketch 52.4 (67378) - http://www.bohemiancoding.com/sketch -->
    <title>favicon--blue</title>
    <desc>Created with Sketch.</desc>
    <g id="Page-1" stroke="none" stroke-width="1" fill="none" fill-rule="evenodd">
        <g id="ahead-logo--blue" transform="translate(0.000000, -62.000000)" fill="#3B5BDB">
            <g id="ahead-logo">
                <g id="favicon--blue" transform="translate(0.000000, 62.000000)">
                    <path d="M135.604462,87.0410367 C135.604462,61.3975313 114.67597,44.3035778 93.4044705,44.3035778 C70.382625,44.3035778 51.1943908,62.4688004 51.1943908,87.0410367 C51.1943908,111.2579 70.382625,130.128718 93.4044705,130.128718 C115.730213,130.128718 135.604462,112.318869 135.604462,87.0410367 Z M182.692308,4.41940302 L182.692308,170.373416 L136.996668,170.373416 L136.996668,149.720583 C125.49079,166.09864 102.816995,173.576923 84.6830045,173.576923 C42.8260206,173.576923 4.80769231,140.455135 4.80769231,87.0410367 C4.80769231,33.6166379 42.8260206,0.5 84.6830045,0.5 C103.518143,0.5 125.49079,7.62290982 136.996668,24.3563401 L136.996668,4.41940302 L182.692308,4.41940302 Z" id="a"></path>
                    <polygon id="a-underline" points="1.13686838e-13 245.692308 201.923077 245.692308 201.923077 212.038462 1.13686838e-13 212.038462"></polygon>
                </g>
            </g>
        </g>
    </g>
</svg>